<svg version="1.1" baseProfile="full" width="1000" height="1000" viewBox="0 0 1000 1000"
 xmlns="http://www.w3.org/2000/svg" style="background:#FFFFFF00;">

<defs>
  <clipPath id="clipBox">
    <rect x="41" y="41" width="917.99994" height="918" />
  </clipPath>
</defs>

<line x1="41" y1="959" x2="958.99994" y2="959" stroke="#000000" stroke-width="2.5"/>
<line x1="41" y1="959" x2="41" y2="41" stroke="#000000" stroke-width="2.5"/>
<text x="963.99994" y="959" font-size="20" fill="#000000"
 text-anchor="start" dominant-baseline="middle">q</text>
<text x="41" y="21" font-size="20" fill="#000000"
 text-anchor="end" dominant-baseline="hanging">p</text>
<g clip-path="url(#clipBox)">
<path d="M 117.50,959.00 L 121.03,952.50 L 124.59,946.01 L 128.18,939.51 L 131.81,933.02 L 135.47,926.52 L 139.16,920.03 L 142.89,913.53 L 146.65,907.04 L 150.44,900.54 L 154.28,894.04 L 158.14,887.55 L 162.05,881.05 L 165.99,874.56 L 169.97,868.06 L 173.99,861.57 L 178.05,855.07 L 182.14,848.58 L 186.28,842.08 L 190.46,835.58 L 194.68,829.09 L 198.94,822.59 L 203.24,816.10 L 207.59,809.60 L 211.98,803.11 L 216.42,796.61 L 220.90,790.11 L 225.43,783.62 L 230.01,777.12 L 234.63,770.63 L 239.31,764.13 L 244.03,757.64 L 248.81,751.14 L 253.63,744.65 L 258.52,738.15 L 263.45,731.65 L 268.44,725.16 L 273.49,718.66 L 278.60,712.17 L 283.76,705.67 L 288.98,699.18 L 294.27,692.68 L 299.62,686.19 L 305.04,679.69 L 310.52,673.19 L 316.07,666.70 L 321.69,660.20 L 327.38,653.71 L 333.15,647.21 L 338.99,640.72 L 344.91,634.22 L 350.91,627.72 L 357.00,621.23 L 363.17,614.73 L 369.43,608.24 L 375.78,601.74 L 382.22,595.25 L 388.77,588.75 L 395.42,582.26 L 402.17,575.76 L 409.03,569.26 L 416.02,562.77 L 423.12,556.27 L 430.35,549.78 L 437.71,543.28 L 445.22,536.79 L 452.87,530.29 L 460.69,523.80 L 468.67,517.30 L 476.84,510.80 L 485.20,504.31 L 493.77,497.81 L 502.57,491.32 L 511.62,484.82 L 520.96,478.33 L 530.61,471.83 L 540.62,465.34 L 551.06,458.84 L 562.01,452.34 L 573.60,445.85 L 586.04,439.35 L 599.75,432.86 L 615.99,426.36" fill="none" stroke="#666666" stroke-width="2.5" />
<path d="M 122.30,959.00 L 125.57,952.50 L 128.88,946.01 L 132.22,939.51 L 135.59,933.02 L 139.00,926.52 L 142.44,920.03 L 145.92,913.53 L 149.43,907.04 L 152.98,900.54 L 156.57,894.04 L 160.20,887.55 L 163.86,881.05 L 167.57,874.56 L 171.32,868.06 L 175.11,861.57 L 178.94,855.07 L 182.82,848.58 L 186.74,842.08 L 190.71,835.58 L 194.72,829.09 L 198.79,822.59 L 202.90,816.10 L 207.07,809.60 L 211.28,803.11 L 215.56,796.61 L 219.89,790.11 L 224.27,783.62 L 228.72,777.12 L 233.22,770.63 L 237.79,764.13 L 242.42,757.64 L 247.12,751.14 L 251.89,744.65 L 256.74,738.15 L 261.65,731.65 L 266.65,725.16 L 271.72,718.66 L 276.88,712.17 L 282.13,705.67 L 287.47,699.18 L 292.91,692.68 L 298.44,686.19 L 304.08,679.69 L 309.83,673.19 L 315.70,666.70 L 321.69,660.20 L 327.82,653.71 L 334.08,647.21 L 340.50,640.72 L 347.07,634.22 L 353.82,627.72 L 360.75,621.23 L 367.89,614.73 L 375.25,608.24 L 382.86,601.74 L 390.75,595.25 L 398.95,588.75 L 407.50,582.26 L 416.48,575.76 L 425.95,569.26 L 436.03,562.77 L 446.90,556.27 L 458.87,549.78 L 472.52,543.28 L 489.71,536.79" fill="none" stroke="#666666" stroke-width="2.5" />
<path d="M 121.49,959.00 L 124.83,952.50 L 128.21,946.01 L 131.61,939.51 L 135.05,933.02 L 138.52,926.52 L 142.02,920.03 L 145.56,913.53 L 149.13,907.04 L 152.73,900.54 L 156.37,894.04 L 160.05,887.55 L 163.76,881.05 L 167.51,874.56 L 171.30,868.06 L 175.13,861.57 L 179.00,855.07 L 182.90,848.58 L 186.85,842.08 L 190.84,835.58 L 194.88,829.09 L 198.95,822.59 L 203.07,816.10 L 207.24,809.60 L 211.45,803.11 L 215.71,796.61 L 220.02,790.11 L 224.38,783.62 L 228.79,777.12 L 233.25,770.63 L 237.77,764.13 L 242.34,757.64 L 246.96,751.14 L 251.65,744.65 L 256.39,738.15 L 261.20,731.65 L 266.06,725.16 L 271.00,718.66 L 275.99,712.17 L 281.06,705.67 L 286.20,699.18 L 291.41,692.68 L 296.70,686.19 L 302.06,679.69 L 307.51,673.19 L 313.04,666.70 L 318.66,660.20 L 324.37,653.71 L 330.18,647.21 L 336.08,640.72 L 342.09,634.22 L 348.21,627.72 L 354.45,621.23 L 360.80,614.73 L 367.29,608.24 L 373.91,601.74 L 380.67,595.25 L 387.59,588.75 L 394.67,582.26 L 401.93,575.76 L 409.38,569.26 L 417.04,562.77 L 424.93,556.27 L 433.07,549.78 L 441.50,543.28 L 450.26,536.79 L 459.38,530.29 L 468.95,523.80 L 479.05,517.30 L 489.82,510.80 L 501.49,504.31 L 514.50,497.81 L 530.06,491.32" fill="none" stroke="#666666" stroke-width="2.5" />
<path d="M 122.92,959.00 L 126.27,952.50 L 129.64,946.01 L 133.05,939.51 L 136.49,933.02 L 139.97,926.52 L 143.47,920.03 L 147.01,913.53 L 150.59,907.04 L 154.19,900.54 L 157.84,894.04 L 161.52,887.55 L 165.23,881.05 L 168.98,874.56 L 172.77,868.06 L 176.60,861.57 L 180.46,855.07 L 184.37,848.58 L 188.31,842.08 L 192.30,835.58 L 196.33,829.09 L 200.40,822.59 L 204.52,816.10 L 208.68,809.60 L 212.88,803.11 L 217.13,796.61 L 221.43,790.11 L 225.78,783.62 L 230.18,777.12 L 234.63,770.63 L 239.13,764.13 L 243.69,757.64 L 248.29,751.14 L 252.96,744.65 L 257.68,738.15 L 262.47,731.65 L 267.31,725.16 L 272.21,718.66 L 277.18,712.17 L 282.22,705.67 L 287.33,699.18 L 292.50,692.68 L 297.75,686.19 L 303.07,679.69 L 308.47,673.19 L 313.96,666.70 L 319.52,660.20 L 325.17,653.71 L 330.92,647.21 L 336.75,640.72 L 342.69,634.22 L 348.73,627.72 L 354.87,621.23 L 361.13,614.73 L 367.51,608.24 L 374.02,601.74 L 380.65,595.25 L 387.43,588.75 L 394.36,582.26 L 401.44,575.76 L 408.70,569.26 L 416.15,562.77 L 423.79,556.27 L 431.66,549.78 L 439.77,543.28 L 448.15,536.79 L 456.84,530.29 L 465.87,523.80 L 475.31,517.30 L 485.24,510.80 L 495.76,504.31 L 507.06,497.81 L 519.45,491.32 L 533.63,484.82 L 552.67,478.33" fill="none" stroke="#666666" stroke-width="2.5" />
<path d="M 164.82,959.00 L 167.40,952.50 L 170.00,946.01 L 172.62,939.51 L 175.28,933.02 L 177.96,926.52 L 180.67,920.03 L 183.41,913.53 L 186.18,907.04 L 188.98,900.54 L 191.82,894.04 L 194.68,887.55 L 197.58,881.05 L 200.51,874.56 L 203.48,868.06 L 206.48,861.57 L 209.52,855.07 L 212.60,848.58 L 215.71,842.08 L 218.87,835.58 L 222.06,829.09 L 225.30,822.59 L 228.58,816.10 L 231.91,809.60 L 235.28,803.11 L 238.69,796.61 L 242.16,790.11 L 245.68,783.62 L 249.24,777.12 L 252.86,770.63 L 256.54,764.13 L 260.27,757.64 L 264.06,751.14 L 267.91,744.65 L 271.83,738.15 L 275.81,731.65 L 279.86,725.16 L 283.98,718.66 L 288.17,712.17 L 292.44,705.67 L 296.79,699.18 L 301.22,692.68 L 305.73,686.19 L 310.34,679.69 L 315.04,673.19 L 319.84,666.70 L 324.74,660.20 L 329.75,653.71 L 334.88,647.21 L 340.12,640.72 L 345.49,634.22 L 351.00,627.72 L 356.64,621.23 L 362.44,614.73 L 368.39,608.24 L 374.52,601.74 L 380.82,595.25 L 387.32,588.75 L 394.03,582.26 L 400.96,575.76 L 408.13,569.26 L 415.56,562.77 L 423.27,556.27 L 431.30,549.78 L 439.67,543.28 L 448.41,536.79 L 457.58,530.29 L 467.21,523.80 L 477.37,517.30 L 488.13,510.80 L 499.59,504.31 L 511.85,497.81 L 525.06,491.32 L 539.43,484.82 L 555.22,478.33 L 572.81,471.83 L 592.80,465.34 L 616.16,458.84 L 644.67,452.34 L 682.43,445.85 L 744.14,439.35" fill="none" stroke="#666666" stroke-width="2.5" />
<path d="M 187.20,959.00 L 190.06,952.50 L 192.93,946.01 L 195.83,939.51 L 198.75,933.02 L 201.69,926.52 L 204.67,920.03 L 207.66,913.53 L 210.68,907.04 L 213.73,900.54 L 216.80,894.04 L 219.90,887.55 L 223.03,881.05 L 226.19,874.56 L 229.37,868.06 L 232.58,861.57 L 235.83,855.07 L 239.10,848.58 L 242.40,842.08 L 245.74,835.58 L 249.10,829.09 L 252.50,822.59 L 255.93,816.10 L 259.40,809.60 L 262.90,803.11 L 266.44,796.61 L 270.01,790.11 L 273.61,783.62 L 277.26,777.12 L 280.94,770.63 L 284.67,764.13 L 288.43,757.64 L 292.24,751.14 L 296.08,744.65 L 299.97,738.15 L 303.91,731.65 L 307.89,725.16 L 311.92,718.66 L 315.99,712.17 L 320.12,705.67 L 324.29,699.18 L 328.52,692.68 L 332.80,686.19 L 337.13,679.69 L 341.52,673.19 L 345.97,666.70 L 350.48,660.20 L 355.06,653.71 L 359.69,647.21 L 364.40,640.72 L 369.17,634.22 L 374.01,627.72 L 378.93,621.23 L 383.92,614.73 L 388.99,608.24 L 394.15,601.74 L 399.39,595.25 L 404.71,588.75 L 410.14,582.26 L 415.65,575.76 L 421.27,569.26 L 427.00,562.77 L 432.84,556.27 L 438.79,549.78 L 444.87,543.28 L 451.07,536.79 L 457.42,530.29 L 463.90,523.80 L 470.54,517.30 L 477.35,510.80 L 484.32,504.31 L 491.49,497.81 L 498.85,491.32 L 506.43,484.82 L 514.24,478.33 L 522.31,471.83 L 530.65,465.34 L 539.30,458.84 L 548.28,452.34 L 557.64,445.85 L 567.43,439.35 L 577.69,432.86 L 588.52,426.36 L 599.99,419.87 L 612.25,413.37 L 625.46,406.88 L 639.89,400.38 L 655.95,393.88 L 674.36,387.39 L 696.66,380.89 L 727.87,374.40" fill="none" stroke="#666666" stroke-width="2.5" />
<path d="M 219.91,959.00 L 222.70,952.50 L 225.51,946.01 L 228.34,939.51 L 231.20,933.02 L 234.07,926.52 L 236.96,920.03 L 239.88,913.53 L 242.82,907.04 L 245.78,900.54 L 248.76,894.04 L 251.76,887.55 L 254.79,881.05 L 257.84,874.56 L 260.91,868.06 L 264.01,861.57 L 267.13,855.07 L 270.27,848.58 L 273.44,842.08 L 276.64,835.58 L 279.86,829.09 L 283.11,822.59 L 286.38,816.10 L 289.69,809.60 L 293.02,803.11 L 296.37,796.61 L 299.76,790.11 L 303.17,783.62 L 306.62,777.12 L 310.09,770.63 L 313.60,764.13 L 317.14,757.64 L 320.70,751.14 L 324.31,744.65 L 327.94,738.15 L 331.61,731.65 L 335.31,725.16 L 339.05,718.66 L 342.82,712.17 L 346.63,705.67 L 350.47,699.18 L 354.36,692.68 L 358.28,686.19 L 362.24,679.69 L 366.25,673.19 L 370.29,666.70 L 374.38,660.20 L 378.51,653.71 L 382.68,647.21 L 386.91,640.72 L 391.17,634.22 L 395.49,627.72 L 399.85,621.23 L 404.27,614.73 L 408.74,608.24 L 413.26,601.74 L 417.83,595.25 L 422.46,588.75 L 427.15,582.26 L 431.90,575.76 L 436.71,569.26 L 441.58,562.77 L 446.52,556.27 L 451.52,549.78 L 456.60,543.28 L 461.74,536.79 L 466.96,530.29 L 472.26,523.80 L 477.64,517.30 L 483.10,510.80 L 488.64,504.31 L 494.28,497.81 L 500.01,491.32 L 505.83,484.82 L 511.76,478.33 L 517.79,471.83 L 523.93,465.34 L 530.19,458.84 L 536.57,452.34 L 543.07,445.85 L 549.71,439.35 L 556.50,432.86 L 563.43,426.36 L 570.52,419.87 L 577.78,413.37 L 585.22,406.88 L 592.86,400.38 L 600.70,393.88 L 608.76,387.39 L 617.06,380.89 L 625.62,374.40 L 634.47,367.90 L 643.63,361.41 L 653.14,354.91 L 663.03,348.41 L 673.35,341.92 L 684.17,335.42 L 695.55,328.93 L 707.60,322.43 L 720.44,315.94 L 734.24,309.44 L 749.28,302.95 L 765.95,296.45 L 784.97,289.95 L 807.83,283.46 L 839.34,276.96" fill="none" stroke="#666666" stroke-width="2.5" />
<path d="M 284.38,959.00 L 286.73,952.50 L 289.09,946.01 L 291.47,939.51 L 293.86,933.02 L 296.26,926.52 L 298.68,920.03 L 301.11,913.53 L 303.56,907.04 L 306.02,900.54 L 308.50,894.04 L 310.99,887.55 L 313.50,881.05 L 316.03,874.56 L 318.57,868.06 L 321.12,861.57 L 323.69,855.07 L 326.28,848.58 L 328.89,842.08 L 331.51,835.58 L 334.15,829.09 L 336.80,822.59 L 339.48,816.10 L 342.17,809.60 L 344.88,803.11 L 347.61,796.61 L 350.35,790.11 L 353.12,783.62 L 355.90,777.12 L 358.71,770.63 L 361.53,764.13 L 364.37,757.64 L 367.24,751.14 L 370.12,744.65 L 373.03,738.15 L 375.95,731.65 L 378.90,725.16 L 381.87,718.66 L 384.86,712.17 L 387.87,705.67 L 390.91,699.18 L 393.97,692.68 L 397.06,686.19 L 400.16,679.69 L 403.30,673.19 L 406.45,666.70 L 409.63,660.20 L 412.84,653.71 L 416.08,647.21 L 419.34,640.72 L 422.63,634.22 L 425.94,627.72 L 429.29,621.23 L 432.66,614.73 L 436.06,608.24 L 439.49,601.74 L 442.95,595.25 L 446.44,588.75 L 449.97,582.26 L 453.52,575.76 L 457.11,569.26 L 460.73,562.77 L 464.39,556.27 L 468.08,549.78 L 471.81,543.28 L 475.57,536.79 L 479.37,530.29 L 483.21,523.80 L 487.09,517.30 L 491.01,510.80 L 494.96,504.31 L 498.96,497.81 L 503.01,491.32 L 507.09,484.82 L 511.22,478.33 L 515.40,471.83 L 519.62,465.34 L 523.90,458.84 L 528.22,452.34 L 532.59,445.85 L 537.02,439.35 L 541.50,432.86 L 546.03,426.36 L 550.62,419.87 L 555.28,413.37 L 559.99,406.88 L 564.76,400.38 L 569.60,393.88 L 574.50,387.39 L 579.48,380.89 L 584.52,374.40 L 589.64,367.90 L 594.83,361.41 L 600.10,354.91 L 605.46,348.41 L 610.89,341.92 L 616.42,335.42 L 622.04,328.93 L 627.75,322.43 L 633.56,315.94 L 639.47,309.44 L 645.50,302.95 L 651.63,296.45 L 657.88,289.95 L 664.26,283.46 L 670.77,276.96 L 677.41,270.47 L 684.20,263.97 L 691.13,257.48 L 698.23,250.98 L 705.50,244.49 L 712.95,237.99 L 720.59,231.49 L 728.43,225.00 L 736.50,218.50 L 744.79,212.01 L 753.34,205.51 L 762.17,199.02 L 771.29,192.52 L 780.74,186.02 L 790.54,179.53 L 800.73,173.03 L 811.35,166.54 L 822.46,160.04 L 834.12,153.55 L 846.41,147.05 L 859.41,140.56 L 873.25,134.06 L 888.10,127.56 L 904.18,121.07 L 921.79,114.57 L 941.42,108.08 L 963.83,101.58 L 990.48,95.09 L 1024.70,88.59 L 1080.40,82.10" fill="none" stroke="#666666" stroke-width="2.5" />
<path d="M 458.68,959.00 L 460.03,952.50 L 461.39,946.01 L 462.76,939.51 L 464.14,933.02 L 465.52,926.52 L 466.92,920.03 L 468.32,913.53 L 469.74,907.04 L 471.16,900.54 L 472.59,894.04 L 474.04,887.55 L 475.49,881.05 L 476.95,874.56 L 478.43,868.06 L 479.91,861.57 L 481.40,855.07 L 482.91,848.58 L 484.43,842.08 L 485.95,835.58 L 487.49,829.09 L 489.04,822.59 L 490.60,816.10 L 492.17,809.60 L 493.76,803.11 L 495.36,796.61 L 496.97,790.11 L 498.59,783.62 L 500.22,777.12 L 501.87,770.63 L 503.53,764.13 L 505.21,757.64 L 506.90,751.14 L 508.60,744.65 L 510.32,738.15 L 512.05,731.65 L 513.79,725.16 L 515.55,718.66 L 517.33,712.17 L 519.12,705.67 L 520.93,699.18 L 522.75,692.68 L 524.59,686.19 L 526.45,679.69 L 528.32,673.19 L 530.21,666.70 L 532.12,660.20 L 534.05,653.71 L 535.99,647.21 L 537.96,640.72 L 539.94,634.22 L 541.95,627.72 L 543.97,621.23 L 546.01,614.73 L 548.08,608.24 L 550.17,601.74 L 552.28,595.25 L 554.41,588.75 L 556.56,582.26 L 558.74,575.76 L 560.94,569.26 L 563.17,562.77 L 565.42,556.27 L 567.70,549.78 L 570.00,543.28 L 572.34,536.79 L 574.70,530.29 L 577.09,523.80 L 579.50,517.30 L 581.95,510.80 L 584.43,504.31 L 586.95,497.81 L 589.49,491.32 L 592.07,484.82 L 594.68,478.33 L 597.33,471.83 L 600.02,465.34 L 602.74,458.84 L 605.51,452.34 L 608.31,445.85 L 611.16,439.35 L 614.04,432.86 L 616.98,426.36 L 619.96,419.87 L 622.98,413.37 L 626.06,406.88 L 629.19,400.38 L 632.37,393.88 L 635.60,387.39 L 638.90,380.89 L 642.25,374.40 L 645.66,367.90 L 649.14,361.41 L 652.68,354.91 L 656.30,348.41 L 659.98,341.92 L 663.74,335.42 L 667.59,328.93 L 671.51,322.43 L 675.52,315.94 L 679.62,309.44 L 683.82,302.95 L 688.12,296.45 L 692.53,289.95 L 697.05,283.46 L 701.68,276.96 L 706.44,270.47 L 711.34,263.97 L 716.38,257.48 L 721.56,250.98 L 726.91,244.49 L 732.43,237.99 L 738.13,231.49 L 744.03,225.00 L 750.15,218.50 L 756.49,212.01 L 763.09,205.51 L 769.96,199.02 L 777.13,192.52 L 784.63,186.02 L 792.49,179.53 L 800.76,173.03 L 809.48,166.54 L 818.72,160.04 L 828.53,153.55 L 839.01,147.05 L 850.27,140.56 L 862.44,134.06 L 875.70,127.56 L 890.29,121.07 L 906.53,114.57 L 924.91,108.08 L 946.15,101.58 L 971.45,95.09 L 1003.02,88.59 L 1045.79,82.10 L 1115.56,75.60" fill="none" stroke="#666666" stroke-width="2.5" />
<path d="M 271.65,959.00 L 274.38,952.50 L 277.12,946.01 L 279.88,939.51 L 282.65,933.02 L 285.44,926.52 L 288.25,920.03 L 291.07,913.53 L 293.90,907.04 L 296.76,900.54 L 299.63,894.04 L 302.52,887.55 L 305.42,881.05 L 308.34,874.56 L 311.28,868.06 L 314.23,861.57 L 317.21,855.07 L 320.20,848.58 L 323.21,842.08 L 326.24,835.58 L 329.28,829.09 L 332.35,822.59 L 335.43,816.10 L 338.53,809.60 L 341.65,803.11 L 344.79,796.61 L 347.96,790.11 L 351.14,783.62 L 354.34,777.12 L 357.56,770.63 L 360.80,764.13 L 364.06,757.64 L 367.35,751.14 L 370.65,744.65 L 373.98,738.15 L 377.33,731.65 L 380.70,725.16 L 384.10,718.66 L 387.51,712.17 L 390.95,705.67 L 394.42,699.18 L 397.90,692.68 L 401.41,686.19 L 404.95,679.69 L 408.51,673.19 L 412.09,666.70 L 415.70,660.20 L 419.34,653.71 L 423.00,647.21 L 426.69,640.72 L 430.41,634.22 L 434.15,627.72 L 437.92,621.23 L 441.72,614.73 L 445.55,608.24 L 449.40,601.74 L 453.29,595.25 L 457.20,588.75 L 461.15,582.26 L 465.12,575.76 L 469.13,569.26 L 473.17,562.77 L 477.24,556.27 L 481.34,549.78 L 485.48,543.28 L 489.65,536.79 L 493.86,530.29 L 498.10,523.80 L 502.38,517.30 L 506.69,510.80 L 511.04,504.31 L 515.43,497.81 L 519.86,491.32 L 524.32,484.82 L 528.83,478.33 L 533.38,471.83 L 537.97,465.34 L 542.60,458.84 L 547.27,452.34 L 551.99,445.85 L 556.75,439.35 L 561.56,432.86 L 566.42,426.36 L 571.33,419.87 L 576.28,413.37 L 581.29,406.88 L 586.35,400.38 L 591.46,393.88 L 596.62,387.39 L 601.84,380.89 L 607.12,374.40 L 612.46,367.90 L 617.85,361.41 L 623.31,354.91 L 628.83,348.41 L 634.42,341.92 L 640.07,335.42 L 645.79,328.93 L 651.59,322.43 L 657.45,315.94 L 663.40,309.44 L 669.42,302.95 L 675.52,296.45 L 681.70,289.95 L 687.97,283.46 L 694.33,276.96 L 700.78,270.47 L 707.33,263.97 L 713.98,257.48 L 720.73,250.98 L 727.59,244.49 L 734.56,237.99 L 741.65,231.49 L 748.87,225.00 L 756.21,218.50 L 763.68,212.01 L 771.30,205.51 L 779.07,199.02 L 786.99,192.52 L 795.09,186.02 L 803.35,179.53 L 811.81,173.03 L 820.46,166.54 L 829.33,160.04 L 838.42,153.55 L 847.77,147.05 L 857.38,140.56 L 867.27,134.06 L 877.49,127.56 L 888.05,121.07 L 899.00,114.57 L 910.38,108.08 L 922.24,101.58 L 934.66,95.09 L 947.72,88.59 L 961.53,82.10 L 976.26,75.60 L 992.13,69.10 L 1009.47,62.61 L 1028.86,56.11 L 1051.41,49.62 L 1080.04,43.12" fill="none" stroke="#666666" stroke-width="2.5" />
<circle cx="117.5" cy="959" r="7" fill="#0000FF" />
<circle cx="195.61949" cy="827.6468" r="7" fill="#0000FF" />
<circle cx="236.01964" cy="766.63855" r="7" fill="#0000FF" />
<circle cx="379.78705" cy="596.08606" r="7" fill="#0000FF" />
<circle cx="421.49512" cy="557.7484" r="7" fill="#0000FF" />
<circle cx="479.91824" cy="508.39087" r="7" fill="#0000FF" />
<circle cx="503.87463" cy="486.9918" r="7" fill="#0000FF" />
<circle cx="510.0038" cy="480.23682" r="7" fill="#0000FF" />
<circle cx="800.9166" cy="172.91571" r="7" fill="#0000FF" />
<circle cx="882.4999" cy="124.45459" r="7" fill="#0000FF" />
</g>
</svg>
