<svg version="1.1" baseProfile="full" width="1000" height="1000" viewBox="0 0 1000 1000"
 xmlns="http://www.w3.org/2000/svg" style="background:#FFFFFF00;">

<defs>
  <clipPath id="clipBox">
    <rect x="41" y="41" width="918" height="918" />
  </clipPath>
</defs>

<line x1="41" y1="959" x2="959" y2="959" stroke="#000000" stroke-width="2.5"/>
<line x1="41" y1="959" x2="41" y2="41" stroke="#000000" stroke-width="2.5"/>
<text x="964" y="959" font-size="20" fill="#000000"
 text-anchor="start" dominant-baseline="middle">q</text>
<text x="41" y="21" font-size="20" fill="#000000"
 text-anchor="end" dominant-baseline="hanging">p</text>
<g clip-path="url(#clipBox)">
<path d="M 117.50,959.00 L 139.90,937.78 L 162.48,916.55 L 185.24,895.33 L 208.18,874.10 L 231.30,852.88 L 254.61,831.66 L 278.11,810.43 L 301.79,789.21 L 325.67,767.99 L 349.75,746.76 L 374.02,725.54 L 398.50,704.31 L 423.18,683.09 L 448.07,661.87 L 473.17,640.64 L 498.49,619.42 L 524.03,598.20 L 549.78,576.97 L 575.77,555.75 L 601.98,534.52 L 628.42,513.30 L 655.11,492.08 L 682.03,470.85 L 709.20,449.63 L 736.61,428.41 L 764.29,407.18 L 792.22,385.96 L 820.41,364.73 L 848.88,343.51 L 877.61,322.29 L 906.63,301.06 L 935.93,279.84 L 965.53,258.62 L 995.42,237.39 L 1025.61,216.17 L 1056.11,194.94 L 1086.93,173.72 L 1118.07,152.50 L 1149.55,131.27 L 1181.36,110.05 L 1213.51,88.83 L 1246.03,67.60 L 1278.91,46.38 L 1312.16,25.15 L 1345.79,3.93 L 1379.81,-17.29 L 1414.24,-38.52 L 1449.09,-59.74 L 1484.36,-80.96 L 1520.07,-102.19 L 1556.24,-123.41 L 1592.87,-144.64 L 1629.99,-165.86 L 1667.60,-187.08 L 1705.73,-208.31 L 1744.39,-229.53 L 1783.60,-250.75 L 1823.39,-271.98 L 1863.77,-293.20 L 1904.77,-314.43 L 1946.42,-335.65 L 1988.75,-356.87 L 2031.78,-378.10 L 2075.54,-399.32 L 2120.09,-420.54 L 2165.44,-441.77 L 2211.66,-462.99 L 2258.79,-484.22 L 2306.88,-505.44 L 2355.99,-526.66 L 2406.21,-547.89 L 2457.59,-569.11 L 2510.25,-590.33 L 2564.27,-611.56 L 2619.80,-632.78 L 2676.96,-654.01 L 2735.94,-675.23 L 2796.96,-696.45 L 2860.29,-717.68 L 2926.27,-738.90 L 2995.36,-760.12 L 3068.20,-781.35 L 3145.72,-802.57 L 3229.41,-823.80 L 3321.95,-845.02 L 3429.59,-866.24 L 3592.48,-887.47" fill="none" stroke="#666666" stroke-width="2.5" />
<path d="M 119.18,959.00 L 141.21,937.78 L 163.46,916.55 L 185.91,895.33 L 208.58,874.10 L 231.47,852.88 L 254.58,831.66 L 277.92,810.43 L 301.50,789.21 L 325.32,767.99 L 349.38,746.76 L 373.68,725.54 L 398.25,704.31 L 423.07,683.09 L 448.17,661.87 L 473.53,640.64 L 499.18,619.42 L 525.12,598.20 L 551.35,576.97 L 577.88,555.75 L 604.72,534.52 L 631.89,513.30 L 659.38,492.08 L 687.21,470.85 L 715.38,449.63 L 743.91,428.41 L 772.82,407.18 L 802.10,385.96 L 831.77,364.73 L 861.85,343.51 L 892.35,322.29 L 923.28,301.06 L 954.66,279.84 L 986.51,258.62 L 1018.84,237.39 L 1051.67,216.17 L 1085.03,194.94 L 1118.93,173.72 L 1153.40,152.50 L 1188.47,131.27 L 1224.15,110.05 L 1260.49,88.83 L 1297.52,67.60 L 1335.26,46.38 L 1373.77,25.15 L 1413.09,3.93 L 1453.26,-17.29 L 1494.33,-38.52 L 1536.38,-59.74 L 1579.47,-80.96 L 1623.67,-102.19 L 1669.08,-123.41 L 1715.80,-144.64 L 1763.95,-165.86 L 1813.67,-187.08 L 1865.14,-208.31 L 1918.55,-229.53 L 1974.16,-250.75 L 2032.29,-271.98 L 2093.35,-293.20 L 2157.90,-314.43 L 2226.70,-335.65 L 2300.91,-356.87 L 2382.36,-378.10 L 2474.44,-399.32 L 2585.13,-420.54 L 2759.61,-441.77" fill="none" stroke="#666666" stroke-width="2.5" />
<path d="M 154.58,959.00 L 171.35,937.78 L 188.20,916.55 L 205.14,895.33 L 222.16,874.10 L 239.27,852.88 L 256.46,831.66 L 273.74,810.43 L 291.10,789.21 L 308.55,767.99 L 326.09,746.76 L 343.72,725.54 L 361.44,704.31 L 379.24,683.09 L 397.14,661.87 L 415.12,640.64 L 433.20,619.42 L 451.37,598.20 L 469.64,576.97 L 487.99,555.75 L 506.45,534.52 L 524.99,513.30 L 543.63,492.08 L 562.37,470.85 L 581.21,449.63 L 600.14,428.41 L 619.17,407.18 L 638.30,385.96 L 657.54,364.73 L 676.87,343.51 L 696.30,322.29 L 715.84,301.06 L 735.48,279.84 L 755.23,258.62 L 775.07,237.39 L 795.03,216.17 L 815.09,194.94 L 835.26,173.72 L 855.54,152.50 L 875.93,131.27 L 896.42,110.05 L 917.03,88.83 L 937.75,67.60 L 958.59,46.38 L 979.54,25.15 L 1000.60,3.93 L 1021.78,-17.29 L 1043.07,-38.52 L 1064.49,-59.74 L 1086.02,-80.96 L 1107.67,-102.19 L 1129.45,-123.41 L 1151.34,-144.64 L 1173.36,-165.86 L 1195.51,-187.08 L 1217.77,-208.31 L 1240.17,-229.53 L 1262.69,-250.75 L 1285.35,-271.98 L 1308.13,-293.20 L 1331.05,-314.43 L 1354.09,-335.65 L 1377.27,-356.87 L 1400.59,-378.10 L 1424.04,-399.32 L 1447.64,-420.54 L 1471.37,-441.77 L 1495.24,-462.99 L 1519.25,-484.22 L 1543.41,-505.44 L 1567.71,-526.66 L 1592.16,-547.89 L 1616.76,-569.11 L 1641.50,-590.33 L 1666.40,-611.56 L 1691.45,-632.78 L 1716.65,-654.01 L 1742.01,-675.23 L 1767.53,-696.45 L 1793.21,-717.68 L 1819.05,-738.90 L 1845.05,-760.12 L 1871.21,-781.35 L 1897.55,-802.57 L 1924.05,-823.80 L 1950.72,-845.02 L 1977.57,-866.24 L 2004.58,-887.47 L 2031.78,-908.69 L 2059.15,-929.91 L 2086.71,-951.14 L 2114.45,-972.36 L 2142.37,-993.59 L 2170.48,-1014.81 L 2198.78,-1036.03 L 2227.27,-1057.26 L 2255.96,-1078.48 L 2284.85,-1099.70 L 2313.93,-1120.93 L 2343.22,-1142.15 L 2372.72,-1163.38 L 2402.42,-1184.60 L 2432.33,-1205.82 L 2462.46,-1227.05 L 2492.80,-1248.27 L 2523.36,-1269.49 L 2554.15,-1290.72 L 2585.16,-1311.94 L 2616.41,-1333.17 L 2647.88,-1354.39 L 2679.59,-1375.61 L 2711.55,-1396.84 L 2743.74,-1418.06 L 2776.19,-1439.28 L 2808.88,-1460.51 L 2841.83,-1481.73 L 2875.05,-1502.96 L 2908.52,-1524.18 L 2942.27,-1545.40 L 2976.28,-1566.63 L 3010.58,-1587.85 L 3045.16,-1609.07 L 3080.02,-1630.30 L 3115.18,-1651.52 L 3150.64,-1672.75 L 3186.40,-1693.97 L 3222.47,-1715.19 L 3258.85,-1736.42 L 3295.56,-1757.64 L 3332.59,-1778.86 L 3369.96,-1800.09 L 3407.67,-1821.31 L 3445.73,-1842.54 L 3484.15,-1863.76 L 3522.93,-1884.98 L 3562.08,-1906.21 L 3601.61,-1927.43 L 3641.52,-1948.65 L 3681.84,-1969.88 L 3722.56,-1991.10 L 3763.70,-2012.33 L 3805.27,-2033.55 L 3847.27,-2054.77 L 3889.73,-2076.00 L 3932.64,-2097.22 L 3976.03,-2118.44 L 4019.91,-2139.67 L 4064.29,-2160.89 L 4109.18,-2182.12 L 4154.60,-2203.34 L 4200.57,-2224.56 L 4247.11,-2245.79 L 4294.23,-2267.01 L 4341.95,-2288.23 L 4390.29,-2309.46 L 4439.27,-2330.68 L 4488.93,-2351.91 L 4539.27,-2373.13 L 4590.34,-2394.35 L 4642.15,-2415.58 L 4694.74,-2436.80 L 4748.15,-2458.02 L 4802.41,-2479.25 L 4857.55,-2500.47 L 4913.63,-2521.70 L 4970.68,-2542.92 L 5028.77,-2564.14 L 5087.94,-2585.37 L 5148.26,-2606.59 L 5209.81,-2627.81 L 5272.65,-2649.04 L 5336.87,-2670.26 L 5402.58,-2691.49 L 5469.90,-2712.71 L 5538.94,-2733.93 L 5609.86,-2755.16 L 5682.85,-2776.38 L 5758.10,-2797.60 L 5835.89,-2818.83 L 5916.52,-2840.05 L 6000.38,-2861.28 L 6087.99,-2882.50 L 6180.01,-2903.72 L 6277.38,-2924.95 L 6381.44,-2946.17 L 6494.37,-2967.40 L 6620.01,-2988.62 L 6767.07,-3009.84 L 6974.43,-3031.07" fill="none" stroke="#666666" stroke-width="2.5" />
<path d="M 161.04,959.00 L 176.92,937.78 L 192.94,916.55 L 209.09,895.33 L 225.38,874.10 L 241.81,852.88 L 258.38,831.66 L 275.09,810.43 L 291.95,789.21 L 308.96,767.99 L 326.12,746.76 L 343.43,725.54 L 360.91,704.31 L 378.55,683.09 L 396.35,661.87 L 414.32,640.64 L 432.46,619.42 L 450.78,598.20 L 469.28,576.97 L 487.96,555.75 L 506.83,534.52 L 525.89,513.30 L 545.15,492.08 L 564.61,470.85 L 584.27,449.63 L 604.15,428.41 L 624.23,407.18 L 644.54,385.96 L 665.08,364.73 L 685.85,343.51 L 706.85,322.29 L 728.10,301.06 L 749.60,279.84 L 771.36,258.62 L 793.38,237.39 L 815.67,216.17 L 838.25,194.94 L 861.11,173.72 L 884.26,152.50 L 907.72,131.27 L 931.50,110.05 L 955.60,88.83 L 980.03,67.60 L 1004.81,46.38 L 1029.95,25.15 L 1055.46,3.93 L 1081.35,-17.29 L 1107.63,-38.52 L 1134.32,-59.74 L 1161.44,-80.96 L 1189.00,-102.19 L 1217.02,-123.41 L 1245.51,-144.64 L 1274.51,-165.86 L 1304.02,-187.08 L 1334.06,-208.31 L 1364.68,-229.53 L 1395.88,-250.75 L 1427.70,-271.98 L 1460.17,-293.20 L 1493.31,-314.43 L 1527.17,-335.65 L 1561.79,-356.87 L 1597.20,-378.10 L 1633.45,-399.32 L 1670.59,-420.54 L 1708.68,-441.77 L 1747.77,-462.99 L 1787.94,-484.22 L 1829.26,-505.44 L 1871.81,-526.66 L 1915.69,-547.89 L 1961.01,-569.11 L 2007.89,-590.33 L 2056.46,-611.56 L 2106.90,-632.78 L 2159.39,-654.01 L 2214.15,-675.23 L 2271.45,-696.45 L 2331.61,-717.68 L 2395.02,-738.90 L 2462.18,-760.12 L 2533.69,-781.35 L 2610.37,-802.57 L 2693.30,-823.80 L 2784.01,-845.02 L 2884.73,-866.24 L 2998.98,-887.47 L 3132.93,-908.69 L 3299.36,-929.91 L 3535.49,-951.14" fill="none" stroke="#666666" stroke-width="2.5" />
<path d="M 186.72,959.00 L 202.24,937.78 L 217.86,916.55 L 233.57,895.33 L 249.38,874.10 L 265.29,852.88 L 281.30,831.66 L 297.42,810.43 L 313.63,789.21 L 329.95,767.99 L 346.38,746.76 L 362.91,725.54 L 379.55,704.31 L 396.30,683.09 L 413.16,661.87 L 430.14,640.64 L 447.23,619.42 L 464.43,598.20 L 481.76,576.97 L 499.20,555.75 L 516.76,534.52 L 534.45,513.30 L 552.26,492.08 L 570.19,470.85 L 588.25,449.63 L 606.45,428.41 L 624.77,407.18 L 643.23,385.96 L 661.83,364.73 L 680.56,343.51 L 699.43,322.29 L 718.44,301.06 L 737.60,279.84 L 756.91,258.62 L 776.36,237.39 L 795.97,216.17 L 815.73,194.94 L 835.65,173.72 L 855.72,152.50 L 875.96,131.27 L 896.37,110.05 L 916.94,88.83 L 937.68,67.60 L 958.60,46.38 L 979.69,25.15 L 1000.97,3.93 L 1022.42,-17.29 L 1044.07,-38.52 L 1065.91,-59.74 L 1087.94,-80.96 L 1110.17,-102.19 L 1132.60,-123.41 L 1155.24,-144.64 L 1178.09,-165.86 L 1201.16,-187.08 L 1224.45,-208.31 L 1247.96,-229.53 L 1271.70,-250.75 L 1295.68,-271.98 L 1319.89,-293.20 L 1344.36,-314.43 L 1369.07,-335.65 L 1394.04,-356.87 L 1419.28,-378.10 L 1444.79,-399.32 L 1470.57,-420.54 L 1496.64,-441.77 L 1523.01,-462.99 L 1549.67,-484.22 L 1576.64,-505.44 L 1603.92,-526.66 L 1631.53,-547.89 L 1659.48,-569.11 L 1687.77,-590.33 L 1716.41,-611.56 L 1745.42,-632.78 L 1774.81,-654.01 L 1804.58,-675.23 L 1834.76,-696.45 L 1865.35,-717.68 L 1896.38,-738.90 L 1927.84,-760.12 L 1959.77,-781.35 L 1992.17,-802.57 L 2025.07,-823.80 L 2058.49,-845.02 L 2092.44,-866.24 L 2126.94,-887.47 L 2162.03,-908.69 L 2197.72,-929.91 L 2234.05,-951.14 L 2271.04,-972.36 L 2308.73,-993.59 L 2347.14,-1014.81 L 2386.32,-1036.03 L 2426.31,-1057.26 L 2467.15,-1078.48 L 2508.89,-1099.70 L 2551.59,-1120.93 L 2595.31,-1142.15 L 2640.11,-1163.38 L 2686.06,-1184.60 L 2733.26,-1205.82 L 2781.80,-1227.05 L 2831.77,-1248.27 L 2883.32,-1269.49 L 2936.57,-1290.72 L 2991.70,-1311.94 L 3048.90,-1333.17 L 3108.40,-1354.39 L 3170.49,-1375.61 L 3235.49,-1396.84 L 3303.86,-1418.06 L 3376.12,-1439.28 L 3453.00,-1460.51 L 3535.48,-1481.73 L 3624.95,-1502.96 L 3723.50,-1524.18 L 3834.61,-1545.40 L 3964.84,-1566.63 L 4130.30,-1587.85 L 4426.83,-1609.07" fill="none" stroke="#666666" stroke-width="2.5" />
<circle cx="117.50011" cy="959" r="7" fill="#0000FF" />
<circle cx="250.83893" cy="835.0801" r="7" fill="#0000FF" />
<circle cx="261.8486" cy="825.0276" r="7" fill="#0000FF" />
<circle cx="489.53543" cy="553.9707" r="7" fill="#0000FF" />
<circle cx="882.5001" cy="124.45453" r="7" fill="#0000FF" />
</g>
</svg>
